<?xml version="1.0" encoding="UTF-8"?>
<svg id="Layer_1" xmlns="http://www.w3.org/2000/svg" xmlns:svg="http://www.w3.org/2000/svg" xmlns:sodipodi="http://sodipodi.sourceforge.net/DTD/sodipodi-0.dtd" xmlns:inkscape="http://www.inkscape.org/namespaces/inkscape" version="1.1" viewBox="0 0 101.4 101.4">
  <!-- Generator: Adobe Illustrator 29.6.1, SVG Export Plug-In . SVG Version: 2.1.1 Build 9)  -->
  <defs>
    <style>
      .st0 {
        fill: #0affe7;
      }

      .st1 {
        fill: #fff;
      }
    </style>
  </defs>
  <sodipodi:namedview id="namedview2972" bordercolor="#000000" borderopacity="0.25" inkscape:current-layer="Layer_1" inkscape:cx="132.21196" inkscape:cy="62.428187" inkscape:deskcolor="#d1d1d1" inkscape:pagecheckerboard="0" inkscape:pageopacity="0.0" inkscape:showpageshadow="2" inkscape:window-height="1027" inkscape:window-maximized="0" inkscape:window-width="1920" inkscape:window-x="0" inkscape:window-y="342" inkscape:zoom="2.6510461" pagecolor="#ffffff" showgrid="false"/>
  <g id="g2969">
    <path id="path2923" class="st1" d="M84.4,49.9c-.7-1.3-1.7-2.3-2.9-3-1.2-.7-2.5-1-4-1-1.4,0-2.8.3-4,1s-2.1,1.7-2.9,3c-.7,1.3-1.1,2.8-1.1,4.6s.4,3.3,1.1,4.6,1.7,2.3,2.9,3c1.2.7,2.5,1,4,1,1.4,0,2.8-.4,4-1,1.2-.7,2.2-1.7,2.9-3,.7-1.3,1.1-2.9,1.1-4.6-.1-1.8-.4-3.3-1.1-4.6Z"/>
    <path id="path2925" class="st1" d="M58.7,49.9c-.7-1.3-1.7-2.3-2.9-3s-2.5-1-4-1c-1.4,0-2.8.3-4,1s-2.1,1.7-2.9,3c-.7,1.3-1.1,2.8-1.1,4.6s.4,3.3,1.1,4.6c.7,1.3,1.7,2.3,2.9,3s2.5,1,4,1,2.8-.4,4-1c1.2-.7,2.2-1.7,2.9-3s1.1-2.9,1.1-4.6c0-1.8-.3-3.3-1.1-4.6Z"/>
    <path id="path2927" class="st1" d="M28.6,51.3c-.5-2.6-1.3-4.3-2.3-5.3s-2.1-1.4-3.3-1.4c-1,0-1.8.3-2.5.8-.7.6-1.3,1.3-1.7,2.3-.4,1-.8,2.1-1,3.4-.2,1.3-.3,2.7-.3,4.2,0,2.8.5,5,1.6,6.6,1,1.7,2.6,2.5,4.6,2.5,1.2,0,2.4-.5,3.6-1.5,1.1-1,2.2-2.2,3.1-3.7-.3-1-.6-2.2-.8-3.6-.3-1.2-.6-2.7-1-4.3Z"/>
    <path id="path2929" class="st1" d="M96.8,0H4.6C2.1,0,0,2.1,0,4.6v92.2c0,2.5,2.1,4.6,4.6,4.6h92.2c2.5,0,4.6-2.1,4.6-4.6V4.6c0-2.5-2.1-4.6-4.6-4.6ZM63.3,65.8h-3.5v-4.7l-.3.5c-.7,1.3-1.8,2.4-3.3,3.3-1.4.9-3.2,1.3-5.1,1.3-2,0-3.8-.5-5.4-1.5-1.3-.8-2.4-1.8-3.2-3.1-.4.4-.8.9-1.4,1.4-.5.5-1.1,1-1.7,1.5-.6.5-1.2.9-1.8,1.2-.6.3-1.2.5-1.8.5-.8,0-1.5-.3-2.2-1-.7-.6-1.2-1.4-1.7-2.2l-.7-1.2c-1.2,1.4-2.5,2.4-3.9,3.2-1.4.8-2.9,1.2-4.4,1.2s-2.9-.3-4.2-.8c-1.3-.5-2.4-1.2-3.4-2.1s-1.7-2-2.3-3.2c-.5-1.2-.8-2.6-.8-4.1,0-2.1.3-4,.8-5.6.6-1.6,1.3-3,2.3-4.1s2.1-2,3.5-2.5c1.3-.6,2.8-.9,4.3-.9,1.2,0,2.3.2,3.2.5.9.3,1.6.8,2.2,1.5s1.1,1.5,1.5,2.4c.4,1,.7,2.1,1,3.3.2,1,.4,1.9.6,2.8.2.8.4,1.6.6,2.2.9-2.1,1.5-4.2,2-6.2.4-2,.6-3.8.6-5.3h4.9c-.2,1-.5,2.2-.8,3.4s-.8,2.5-1.3,3.8-1.1,2.6-1.8,3.9c-.7,1.3-1.4,2.5-2.2,3.7.2.4.5.9.7,1.4.3.5.6.9.9,1.3.4.4.8.7,1.3,1s1,.4,1.6.4c.8,0,1.5-.2,2.1-.7.6-.4,1.2-.9,1.7-1.3l.1-.1c-.1-.1-.1-.2-.2-.3-.9-1.8-1.4-3.8-1.4-6.1s.5-4.3,1.4-6.1c.9-1.7,2.2-3.1,3.8-4,1.6-1,3.5-1.4,5.5-1.4,1.7,0,3.4.4,4.9,1.2s2.7,1.9,3.4,3.2l.3.5v-12.7h3.5v30.6h.1ZM89,65.8h-3.5v-4.7l-.3.5c-.7,1.3-1.8,2.4-3.3,3.3s-3.2,1.3-5.1,1.3c-2,0-3.8-.5-5.4-1.5s-2.9-2.4-3.8-4.2-1.4-3.8-1.4-6.1.5-4.3,1.4-6.1c.9-1.7,2.2-3.1,3.8-4,1.6-1,3.5-1.4,5.4-1.4,2,0,3.7.4,5.1,1.3,1.4.8,2.5,1.9,3.2,3.2l.3.5v-4.6h3.6v22.5Z"/>
  </g>
  <g id="g2225">
    <path id="path2179" class="st0" d="M96.8,0H4.6C2.1,0,0,2.1,0,4.6v92.2c0,2.5,2.1,4.6,4.6,4.6h92.2c2.5,0,4.6-2.1,4.6-4.6V4.6c0-2.5-2.1-4.6-4.6-4.6Z"/>
    <path id="path2221" d="M59.7,35.2v12.7l-.3-.5c-.7-1.3-1.9-2.4-3.4-3.2s-3.2-1.2-4.9-1.2c-2,0-3.9.4-5.5,1.4-1.6.9-2.9,2.3-3.8,4-.9,1.8-1.4,3.8-1.4,6.1s.5,4.3,1.4,6.1c.1.1.1.2.2.3l-.1.1c-.5.4-1.1.9-1.7,1.3-.6.5-1.3.7-2.1.7-.6,0-1.1-.1-1.6-.4-.5-.3-.9-.6-1.3-1-.3-.4-.6-.8-.9-1.3-.2-.5-.5-1-.7-1.4.8-1.2,1.5-2.4,2.2-3.7s1.3-2.6,1.8-3.9c.5-1.3,1-2.6,1.3-3.8s.6-2.4.8-3.4h-4.9c0,1.5-.2,3.3-.6,5.3-.5,2-1.1,4.1-2,6.2-.2-.6-.4-1.4-.6-2.2-.2-.9-.4-1.8-.6-2.8-.3-1.2-.6-2.3-1-3.3-.4-.9-.9-1.7-1.5-2.4s-1.3-1.2-2.2-1.5c-.9-.3-2-.5-3.2-.5-1.5,0-3,.3-4.3.9-1.4.5-2.5,1.4-3.5,2.5s-1.7,2.5-2.3,4.1c-.5,1.6-.8,3.5-.8,5.6,0,1.5.3,2.9.8,4.1.6,1.2,1.3,2.3,2.3,3.2s2.1,1.6,3.4,2.1,2.7.8,4.2.8,3-.4,4.4-1.2c1.4-.8,2.7-1.8,3.9-3.2l.7,1.2c.5.8,1,1.6,1.7,2.2.7.7,1.4,1,2.2,1,.6,0,1.2-.2,1.8-.5s1.2-.7,1.8-1.2,1.2-1,1.7-1.5c.6-.5,1-1,1.4-1.4.8,1.3,1.9,2.3,3.2,3.1,1.6,1,3.4,1.5,5.4,1.5s3.7-.4,5.1-1.3c1.5-.9,2.6-2,3.3-3.3l.3-.5v4.7h3.5l-.1-30.6h-3.5ZM27.3,62.9c-1.2,1-2.4,1.5-3.6,1.5-2,0-3.6-.8-4.6-2.5-1.1-1.6-1.6-3.8-1.6-6.6,0-1.5.1-2.9.3-4.2.2-1.3.6-2.4,1-3.4s1-1.7,1.7-2.3c.7-.5,1.5-.8,2.5-.8,1.2,0,2.3.4,3.3,1.4s1.8,2.7,2.3,5.3c.4,1.6.7,3.1,1,4.3.2,1.4.5,2.6.8,3.6-.9,1.5-2,2.7-3.1,3.7ZM58.7,59.1c-.7,1.3-1.7,2.3-2.9,3-1.2.6-2.5,1-4,1s-2.8-.3-4-1-2.2-1.7-2.9-3-1.1-2.8-1.1-4.6.4-3.3,1.1-4.6c.8-1.3,1.7-2.3,2.9-3s2.6-1,4-1c1.5,0,2.8.3,4,1s2.2,1.7,2.9,3c.8,1.3,1.1,2.8,1.1,4.6,0,1.7-.4,3.3-1.1,4.6Z"/>
    <path id="path2223" d="M85.4,43.3v4.6l-.3-.5c-.7-1.3-1.8-2.4-3.2-3.2-1.4-.9-3.1-1.3-5.1-1.3s-3.8.4-5.4,1.4c-1.6.9-2.9,2.3-3.8,4-.9,1.8-1.4,3.8-1.4,6.1s.5,4.3,1.4,6.1,2.2,3.2,3.8,4.2c1.6,1,3.4,1.5,5.4,1.5s3.6-.4,5.1-1.3,2.6-2,3.3-3.3l.3-.5v4.7h3.5v-22.5h-3.6ZM84.4,59.1c-.7,1.3-1.7,2.3-2.9,3-1.2.6-2.6,1-4,1-1.5,0-2.8-.3-4-1s-2.2-1.7-2.9-3c-.7-1.3-1.1-2.8-1.1-4.6s.4-3.3,1.1-4.6c.8-1.3,1.7-2.3,2.9-3,1.2-.7,2.6-1,4-1,1.5,0,2.8.3,4,1s2.2,1.7,2.9,3c.7,1.3,1,2.8,1.1,4.6,0,1.7-.4,3.3-1.1,4.6Z"/>
  </g>
</svg>