<svg xmlns="http://www.w3.org/2000/svg" viewBox="0 0 2782.47 800.45"><defs><style>.cls-1,.cls-2{fill:#ff914d;}.cls-2{isolation:isolate;font-size:409.6px;font-family:ArialRoundedMTBold, Arial Rounded MT Bold;}</style></defs><g id="Layer_2" data-name="Layer 2"><g id="Layer_1-2" data-name="Layer 1"><path class="cls-1" d="M349.69,246.17v57.36c0,5.35-5.35,8.32-15.46,10.1a97.92,97.92,0,0,1-24.67,0c-14.86,0-20.21-4.16-20.21-11.29V188.51c0-3.86,0-5,12.19-4.46s24.67,0,36.85,0,11.59,0,11.3,3.57C349.39,206.94,349.69,226.55,349.69,246.17Z"/><path class="cls-1" d="M394,36c15.75-11.29,31.8-22,47.26-34.77,4.45-3.27,9.8,0,16.94,7.13A99.46,99.46,0,0,1,473,28.32c7.43,13.07,8,19,2.37,22.88-31.5,23.18-63,45.18-94.21,69-3,2.08-5.05,1.79-10.7-7.72a359.61,359.61,0,0,0-21.1-29.72c-5.65-7.44-6.54-9.52-3.57-11.3Z"/><path class="cls-1" d="M344,172.16H295c-3.27,0-5.65-1.78-5.65-4.16l5.95-32.69a4.17,4.17,0,0,1,3-3.57A212.91,212.91,0,0,1,347,149.87a3.88,3.88,0,0,1,2.68,3.57v15.45C349.69,170.38,347.31,172.16,344,172.16Z"/><path class="cls-1" d="M350.28,140.07l-42.5-24.38c-2.67-1.78-4.16-4.45-3-6.53L327.1,83.89a4.17,4.17,0,0,1,4.46-1.78c5.64,0,29.72,34.77,33.58,39.23a3.58,3.58,0,0,1,0,4.46l-8.32,13.67A5.07,5.07,0,0,1,350.28,140.07Z"/><g id="RJ4sI4.tif"><path class="cls-1" d="M434.09,800.45H407.64a20.78,20.78,0,0,1-12.18-12.78,99.22,99.22,0,0,1,0-21.1V742.2a33.31,33.31,0,0,1,0-7.73,20.21,20.21,0,0,1,19.91-14.56h26.75a40.41,40.41,0,0,0,39.23-40.42v-63.9l3.56-17.83a151.43,151.43,0,0,1,20.51-41.91h0l14.86-17.23c8-7.14,14.86-15.16,22.29-22.89V514c-7.13-7.43-13.67-15.16-21.4-22l-15.75-17.53a140.38,140.38,0,0,1-19.91-40.72l-3.57-18.13V352h0a5,5,0,0,0,0-3,40.12,40.12,0,0,0-41.61-36.56h-19a89.62,89.62,0,0,1-12.48,0,22,22,0,0,1-13.37-14h0V251.22a20.48,20.48,0,0,1,11-19,25.09,25.09,0,0,1,9.81-2.38h26.45A114,114,0,0,1,482.54,237a133.27,133.27,0,0,1,35.07,20.21s2.08,3,3.86,3.87l9.21,9.51a118.22,118.22,0,0,1,11.59,15.75A189,189,0,0,1,554.46,311a29,29,0,0,0,0,4.75c1.78,6.54,3.27,12.78,4.46,19.32v58.25a44.3,44.3,0,0,0,10.7,34.48c2.08,2.38,3.56,5.35,6.83,6.54l4.46,5.05c9.21,8.92,17.54,18.13,26.45,27s11.89,12.19,17.54,18.43a41,41,0,0,1,11,18.13,40.12,40.12,0,0,1-8.61,39.53c-3.87,4.46-8,8.32-12.19,12.48-8,8.62-16.64,16.94-24.67,25.56s-11.59,11.89-17.53,18.13a45.77,45.77,0,0,0-14,34.18v49.33a118.93,118.93,0,0,1-11.3,48.45,126.4,126.4,0,0,1-26.45,37.15,105.77,105.77,0,0,1-27.64,19.61,75,75,0,0,1-13.07,6.25,197.55,197.55,0,0,1-22.89,5.64H445.68a2.39,2.39,0,0,0-2.37,0h-9.22Z"/></g><g id="RJ4sI4.tif-2"><path class="cls-1" d="M205,229.82h27.64a19.89,19.89,0,0,1,12.18,12.78,97.72,97.72,0,0,1,0,20.8v24.67a28.87,28.87,0,0,1,0,7.43,19.61,19.61,0,0,1-19.91,14.57H198.11A40.11,40.11,0,0,0,158,350.15c0,.61,0,1.21,0,1.82v63.9l-3.57,17.83a138.24,138.24,0,0,1-19.91,40.42h0l-15.45,17.54c-8,7.43-14.86,15.45-22.29,23.18v1.78c7.13,7.43,13.67,15.16,21.4,22l15.15,17.23a148.35,148.35,0,0,1,20.21,39.83l3.57,18.13v3.56a5,5,0,0,0,0,3v57.06h0a3.58,3.58,0,0,0,0,3,40.11,40.11,0,0,0,21.4,34.18,37.14,37.14,0,0,0,22.29,5.35h19a89.62,89.62,0,0,1,12.48,0,22.3,22.3,0,0,1,12.19,12.18v1.49h0v44.28a20.8,20.8,0,0,1-11,19.32,25.06,25.06,0,0,1-10.1,2.38H197.22a114,114,0,0,1-39.82-7.13A132.9,132.9,0,0,1,122.33,774s-3.27-3.86-3.27-4.76l-9.51-9.51a150.62,150.62,0,0,1-11.89-15.45,190.28,190.28,0,0,1-12.19-24.67,26.91,26.91,0,0,0,0-4.75c-1.78-6.54-3.27-12.78-4.45-19.32V637.29a44.3,44.3,0,0,0-10.7-34.48,25.16,25.16,0,0,0-8.92-7.13l-4.46-4.76c-9.21-8.91-17.53-18.13-26.45-27S18.6,551.69,13,545.45A40.9,40.9,0,0,1,2,527.32a40.13,40.13,0,0,1,8.62-39.53c3.86-4.45,8-8.32,11.89-12.48,8.32-8.62,16.94-16.94,25-25.56S59,437.86,65,431.62a45.75,45.75,0,0,0,14-34.18V348.11a118.93,118.93,0,0,1,10.41-49.64,121.31,121.31,0,0,1,26.45-37.15,106,106,0,0,1,27.64-19.61,75,75,0,0,1,13.07-6.24,198.09,198.09,0,0,1,22.89-5.65H205Z"/></g><text class="cls-2" transform="translate(746.86 674.87)">JuiceMind</text></g></g></svg>