<?xml version="1.0" encoding="UTF-8"?>
<svg id="Layer_1" xmlns="http://www.w3.org/2000/svg" xmlns:xlink="http://www.w3.org/1999/xlink" version="1.1" viewBox="0 0 38 35.98">
  <!-- Generator: Adobe Illustrator 29.6.1, SVG Export Plug-In . SVG Version: 2.1.1 Build 9)  -->
  <defs>
    <style>
      .st0 {
        fill: url(#linear-gradient1);
      }

      .st1 {
        fill: url(#linear-gradient3);
      }

      .st2 {
        fill: url(#linear-gradient6);
      }

      .st3 {
        fill: url(#linear-gradient5);
      }

      .st4 {
        fill: url(#radial-gradient);
      }

      .st5 {
        fill: url(#linear-gradient);
      }

      .st6 {
        fill: url(#radial-gradient1);
        fill-opacity: .4;
      }

      .st7 {
        fill: url(#radial-gradient5);
      }

      .st7, .st8 {
        fill-opacity: .5;
      }

      .st8 {
        fill: url(#radial-gradient2);
      }

      .st9 {
        fill: #fff;
      }

      .st10 {
        fill: url(#linear-gradient2);
      }

      .st10, .st11 {
        fill-opacity: .2;
      }

      .st11 {
        fill: url(#linear-gradient4);
      }

      .st12 {
        fill: url(#radial-gradient3);
      }

      .st13 {
        fill: url(#radial-gradient4);
      }
    </style>
    <linearGradient id="linear-gradient" x1="4.1" y1="24.66" x2="25.04" y2="37.65" gradientTransform="translate(0 37.94) scale(1 -1)" gradientUnits="userSpaceOnUse">
      <stop offset="0" stop-color="#20a7fa"/>
      <stop offset=".4" stop-color="#3bd5ff"/>
      <stop offset="1" stop-color="#c4b0ff"/>
    </linearGradient>
    <linearGradient id="linear-gradient1" x1="13.7" y1="16.86" x2="25.36" y2="35.53" gradientTransform="translate(0 37.94) scale(1 -1)" gradientUnits="userSpaceOnUse">
      <stop offset="0" stop-color="#165ad9"/>
      <stop offset=".5" stop-color="#1880e5"/>
      <stop offset="1" stop-color="#8587ff"/>
    </linearGradient>
    <linearGradient id="linear-gradient2" x1="23.85" y1="19.57" x2="10.91" y2="30.12" gradientTransform="translate(0 37.94) scale(1 -1)" gradientUnits="userSpaceOnUse">
      <stop offset=".24" stop-color="#448aff" stop-opacity="0"/>
      <stop offset=".79" stop-color="#0032b1"/>
    </linearGradient>
    <linearGradient id="linear-gradient3" x1="17.17" y1="17.36" x2="37.63" y2="30.45" gradientTransform="translate(0 37.94) scale(1 -1)" gradientUnits="userSpaceOnUse">
      <stop offset="0" stop-color="#1a43a6"/>
      <stop offset=".49" stop-color="#2052cb"/>
      <stop offset="1" stop-color="#5f20cb"/>
    </linearGradient>
    <linearGradient id="linear-gradient4" x1="28" y1="16.16" x2="15.57" y2="26.92" gradientTransform="translate(0 37.94) scale(1 -1)" gradientUnits="userSpaceOnUse">
      <stop offset="0" stop-color="#0045b9" stop-opacity="0"/>
      <stop offset=".67" stop-color="#0d1f69"/>
    </linearGradient>
    <radialGradient id="radial-gradient" cx="-59" cy="42.09" fx="-59" fy="42.09" r="1" gradientTransform="translate(1250.15 -1592.37) rotate(-90) scale(27 -29.23)" gradientUnits="userSpaceOnUse">
      <stop offset=".57" stop-color="#275ff0" stop-opacity="0"/>
      <stop offset=".99" stop-color="#002177"/>
    </radialGradient>
    <linearGradient id="linear-gradient5" x1="38" y1="13.9" x2="19.85" y2="13.9" gradientTransform="translate(0 37.94) scale(1 -1)" gradientUnits="userSpaceOnUse">
      <stop offset="0" stop-color="#4dc4ff"/>
      <stop offset=".2" stop-color="#0fafff"/>
    </linearGradient>
    <radialGradient id="radial-gradient1" cx="-55.64" cy="40.61" fx="-55.64" fy="40.61" r="1" gradientTransform="translate(811.68 -91.08) rotate(-45) scale(11.57 -11.57)" gradientUnits="userSpaceOnUse">
      <stop offset=".26" stop-color="#0060d1"/>
      <stop offset=".91" stop-color="#0383f1" stop-opacity="0"/>
    </radialGradient>
    <radialGradient id="radial-gradient2" cx="-58.15" cy="42.74" fx="-58.15" fy="42.74" r="1" gradientTransform="translate(2599.2 -854.69) rotate(-52.66) scale(39.28 -35.52)" gradientUnits="userSpaceOnUse">
      <stop offset=".73" stop-color="#f4a7f7" stop-opacity="0"/>
      <stop offset="1" stop-color="#f4a7f7"/>
    </radialGradient>
    <radialGradient id="radial-gradient3" cx="-60.46" cy="44.83" fx="-60.46" fy="44.83" r="1" gradientTransform="translate(-2688.36 -256.75) rotate(123.34) scale(20.73 -53.79)" gradientUnits="userSpaceOnUse">
      <stop offset="0" stop-color="#49deff"/>
      <stop offset=".72" stop-color="#29c3ff"/>
    </radialGradient>
    <linearGradient id="linear-gradient6" x1="-.55" y1="13.89" x2="16.92" y2="13.91" gradientTransform="translate(0 37.94) scale(1 -1)" gradientUnits="userSpaceOnUse">
      <stop offset=".21" stop-color="#6ce0ff"/>
      <stop offset=".54" stop-color="#50d5ff" stop-opacity="0"/>
    </linearGradient>
    <radialGradient id="radial-gradient4" cx="-57.22" cy="45.88" fx="-57.22" fy="45.88" r="1" gradientTransform="translate(117.13 1557.8) rotate(46.92) scale(21.06 -21.06)" gradientUnits="userSpaceOnUse">
      <stop offset=".04" stop-color="#0091ff"/>
      <stop offset=".92" stop-color="#183dad"/>
    </radialGradient>
    <radialGradient id="radial-gradient5" cx="-59" cy="48.23" fx="-59" fy="48.23" r="1" gradientTransform="translate(-615.07 687.52) rotate(90) scale(11.2 -12.92)" gradientUnits="userSpaceOnUse">
      <stop offset=".56" stop-color="#0fa5f7" stop-opacity="0"/>
      <stop offset="1" stop-color="#74c6ff"/>
    </radialGradient>
  </defs>
  <path class="st5" d="M26.93,3.32L3.98,17.87l-1.97-3.11v-2.68c0-.98.49-1.89,1.31-2.42L16.66.99c2.03-1.32,4.65-1.32,6.69,0l3.59,2.33Z"/>
  <path class="st0" d="M23.14.86c.07.04.14.08.21.13l10.41,6.76L7.94,24.11l-3.96-6.25L22.93,5.83c1.8-1.14,1.87-3.7.21-4.96Z"/>
  <path class="st10" d="M23.14.86c.07.04.14.08.21.13l10.41,6.76L7.94,24.11l-3.96-6.25L22.93,5.83c1.8-1.14,1.87-3.7.21-4.96Z"/>
  <path class="st1" d="M18.24,27.24l-10.3-3.13,21.9-13.88c1.84-1.17,1.84-3.86,0-5.03l-.1-.06.28.18,6.67,4.32c.82.53,1.31,1.44,1.31,2.42v2.6l-19.76,12.58Z"/>
  <path class="st11" d="M18.24,27.24l-10.3-3.13,21.9-13.88c1.84-1.17,1.84-3.86,0-5.03l-.1-.06.28.18,6.67,4.32c.82.53,1.31,1.44,1.31,2.42v2.6l-19.76,12.58Z"/>
  <path class="st4" d="M23.35.99c-2.03-1.32-4.65-1.32-6.69,0L3.32,9.65c-.82.53-1.31,1.44-1.31,2.42v.13c.03.98.55,1.88,1.38,2.41l16.59,10.46,16.63-10.44c.86-.54,1.39-1.49,1.39-2.51v2.54-2.6c0-.98-.49-1.89-1.31-2.42L23.35.99Z"/>
  <path class="st3" d="M17.05,35.98h14.7c3.45,0,6.25-2.8,6.25-6.25V12.12c0,1.02-.52,1.97-1.39,2.51l-21.86,13.73c-1.18.74-1.89,2.04-1.89,3.43,0,2.32,1.88,4.2,4.2,4.2Z"/>
  <path class="st6" d="M17.05,35.98h14.7c3.45,0,6.25-2.8,6.25-6.25V12.12c0,1.02-.52,1.97-1.39,2.51l-21.86,13.73c-1.18.74-1.89,2.04-1.89,3.43,0,2.32,1.88,4.2,4.2,4.2Z"/>
  <path class="st8" d="M17.05,35.98h14.7c3.45,0,6.25-2.8,6.25-6.25V12.12c0,1.02-.52,1.97-1.39,2.51l-21.86,13.73c-1.18.74-1.89,2.04-1.89,3.43,0,2.32,1.88,4.2,4.2,4.2Z"/>
  <path class="st12" d="M23.03,35.97h-14.78c-3.45,0-6.25-2.8-6.25-6.25V12.1c0,1.02.52,1.97,1.38,2.51l21.84,13.77c1.2.75,1.92,2.07,1.92,3.48,0,2.27-1.84,4.11-4.12,4.11Z"/>
  <path class="st2" d="M23.03,35.97h-14.78c-3.45,0-6.25-2.8-6.25-6.25V12.1c0,1.02.52,1.97,1.38,2.51l21.84,13.77c1.2.75,1.92,2.07,1.92,3.48,0,2.27-1.84,4.11-4.12,4.11Z"/>
  <rect class="st13" y="16.97" width="16" height="16" rx="3.25" ry="3.25"/>
  <rect class="st7" y="16.97" width="16" height="16" rx="3.25" ry="3.25"/>
  <path class="st9" d="M7.96,29.57c-1.32,0-2.41-.41-3.26-1.24-.85-.83-1.27-1.91-1.27-3.24,0-1.41.43-2.55,1.29-3.41.86-.87,1.99-1.3,3.39-1.3,1.32,0,2.39.42,3.22,1.25.83.83,1.25,1.93,1.25,3.29s-.43,2.53-1.29,3.38c-.86.85-1.97,1.28-3.32,1.28ZM8,27.82c.72,0,1.3-.25,1.74-.74.44-.49.66-1.18.66-2.05s-.21-1.63-.64-2.14c-.43-.51-1-.76-1.71-.76s-1.33.26-1.77.79c-.45.52-.67,1.21-.67,2.07s.22,1.56.67,2.07c.45.5,1.02.76,1.72.76Z"/>
  <path class="st9" d="M7.96,29.7c-1.32,0-2.4-.43-3.25-1.28-.85-.85-1.27-1.96-1.27-3.33,0-1.45.43-2.61,1.29-3.51.86-.89,1.98-1.34,3.37-1.34,1.31,0,2.38.43,3.21,1.28.83.85,1.24,1.98,1.24,3.38s-.43,2.6-1.29,3.48c-.85.88-1.96,1.31-3.31,1.31ZM7.99,27.89c.72,0,1.3-.25,1.73-.76.44-.51.66-1.21.66-2.11s-.21-1.67-.64-2.19-.99-.78-1.7-.78-1.32.27-1.77.81c-.45.54-.67,1.25-.67,2.13s.22,1.61.67,2.13c.45.52,1.02.78,1.72.78Z"/>
</svg>