<?xml version="1.0" encoding="UTF-8"?>
<svg id="Layer_1" xmlns="http://www.w3.org/2000/svg" version="1.1" viewBox="0 0 10.48 24">
  <!-- Generator: Adobe Illustrator 29.6.1, SVG Export Plug-In . SVG Version: 2.1.1 Build 9)  -->
  <defs>
    <style>
      .st0 {
        fill: #fff;
      }
    </style>
  </defs>
  <path class="st0" d="M6.67,2.11h0s.47,3.58.47,9.67-.47,9.67-.47,9.67h0c2.38-2.53,3.85-5.93,3.85-9.67h0c0-3.74-1.46-7.14-3.85-9.67Z"/>
  <path class="st0" d="M6.76,8.51c-.5-1.89-1.44-3.67-2.73-5.29C2.91,1.97,1.56.88.03,0c1.48,2.35,2.48,6.73,2.48,11.76S1.52,21.16.03,23.51c-.01.03-.02.05-.03.08.85-.49,1.65-1.05,2.38-1.66,2.53-2.4,4.19-5.29,4.65-8.43.07-.56.1-1.13.1-1.71,0-1.13-.13-2.23-.38-3.29h0Z"/>
</svg>