<svg width="595" height="377" viewBox="0 0 595 377" fill="none" xmlns="http://www.w3.org/2000/svg">
<path d="M35.5171 338.608C11.6291 312.803 0 280.39 0 241.368C0 202.347 11.6291 170.563 35.5171 144.443C59.4052 118.639 89.2658 105.421 125.726 105.421C162.187 105.421 190.475 119.583 208.706 147.905V29.2664C208.706 12.9025 216.878 5.03536 233.536 5.03536H262.768C279.112 5.03536 286.97 13.2172 286.97 29.2664V347.104C286.97 363.468 278.798 371.335 262.768 371.335H233.536C216.878 371.335 208.706 363.154 208.706 347.104V334.831C190.475 362.839 162.501 377 125.726 377C88.9515 377 59.4052 364.413 35.5171 338.608ZM143.328 168.045C104.353 168.045 78.5791 199.829 78.5791 241.054C78.5791 282.278 104.353 314.062 143.328 314.062C182.303 314.062 209.649 283.222 210.277 241.054C209.649 198.885 182.303 168.045 143.328 168.045ZM381.894 371.335C365.55 371.335 357.691 363.154 357.691 347.104V169.304H334.432C325.946 169.304 321.859 165.213 321.859 156.716V127.45C321.859 118.953 325.946 114.862 334.432 114.862H357.691V98.1838C357.691 60.1062 369.95 32.7282 389.438 19.1965C409.554 5.03536 429.356 0 453.872 0C502.906 0 540.938 24.2315 540.938 69.547C540.938 114.863 540.309 73.9526 539.995 77.7289C539.052 84.3374 534.966 87.4843 527.737 87.4843H491.276C484.046 87.4843 480.589 84.3373 480.589 78.3581V75.2112C480.589 65.4558 470.846 58.5328 458.902 58.5328C446.958 58.5328 434.07 68.6029 434.07 88.4285V115.177H479.646C488.133 115.177 492.219 119.268 492.219 127.765V157.031C492.219 165.528 488.133 169.619 479.646 169.619H435.642V347.419C435.642 363.783 427.47 371.65 410.811 371.65H381.894V371.335ZM595 332.943C595 345.531 590.6 355.601 580.856 364.412C571.741 372.909 560.111 377 546.281 377C532.451 377 520.821 372.909 511.706 364.727C502.591 356.23 498.191 345.531 498.191 332.943C498.191 307.139 518.307 287.942 546.281 287.942C574.255 287.942 595 307.139 595 332.943Z" fill="white"/>
</svg>