<?xml version="1.0" encoding="UTF-8"?>
<svg id="Layer_1" xmlns="http://www.w3.org/2000/svg" version="1.1" viewBox="0 0 637.86 800.45">
  <!-- Generator: Adobe Illustrator 29.6.1, SVG Export Plug-In . SVG Version: 2.1.1 Build 9)  -->
  <defs>
    <style>
      .st0 {
        fill: #ff914d;
      }
    </style>
  </defs>
  <g id="Layer_2">
    <g id="Layer_1-2">
      <path class="st0" d="M349.69,246.17v57.36c0,5.35-5.35,8.32-15.46,10.1-8.19,1.04-16.48,1.04-24.67,0-14.86,0-20.21-4.16-20.21-11.29v-113.83c0-3.86,0-5,12.19-4.46s24.67,0,36.85,0,11.59,0,11.3,3.57c-.3,19.32,0,38.93,0,58.55Z"/>
      <path class="st0" d="M394,36c15.75-11.29,31.8-22,47.26-34.77,4.45-3.27,9.8,0,16.94,7.13,5.75,6.01,10.72,12.71,14.8,19.96,7.43,13.07,8,19,2.37,22.88-31.5,23.18-63,45.18-94.21,69-3,2.08-5.05,1.79-10.7-7.72-6.53-10.26-13.57-20.18-21.1-29.72-5.65-7.44-6.54-9.52-3.57-11.3l48.21-35.46Z"/>
      <path class="st0" d="M344,172.16h-49c-3.27,0-5.65-1.78-5.65-4.16l5.95-32.69c.18-1.69,1.37-3.1,3-3.57,16.91,4.03,33.27,10.12,48.7,18.13,1.56.51,2.63,1.93,2.68,3.57v15.45c.01,1.49-2.37,3.27-5.68,3.27Z"/>
      <path class="st0" d="M350.28,140.07l-42.5-24.38c-2.67-1.78-4.16-4.45-3-6.53l22.32-25.27c.96-1.48,2.75-2.19,4.46-1.78,5.64,0,29.72,34.77,33.58,39.23,1.04,1.31,1.04,3.15,0,4.46l-8.32,13.67c-1.74,1.78-4.51,2.03-6.54.6Z"/>
      <g id="RJ4sI4.tif">
        <path class="st0" d="M434.09,800.45h-26.45c-5.76-2.24-10.22-6.92-12.18-12.78-.75-7.01-.75-14.09,0-21.1v-24.37c-.3-2.57-.3-5.16,0-7.73,2.56-8.81,10.74-14.79,19.91-14.56h26.75c21.86-.64,39.24-18.55,39.23-40.42v-63.9l3.56-17.83c4.63-14.95,11.55-29.08,20.51-41.91h0l14.86-17.23c8-7.14,14.86-15.16,22.29-22.89v-1.73c-7.13-7.43-13.67-15.16-21.4-22l-15.75-17.53c-8.8-12.41-15.52-26.16-19.91-40.72l-3.57-18.13v-63.62h0c.31-.98.31-2.02,0-3-1.88-21.34-20.2-37.44-41.61-36.56h-19c-4.15.29-8.33.29-12.48,0-6.38-2.35-11.32-7.52-13.37-14h0v-47.22c-.32-7.93,3.96-15.33,11-19,3.07-1.45,6.41-2.26,9.81-2.38h26.45c13.59,0,27.07,2.42,39.8,7.16,12.65,4.91,24.48,11.73,35.07,20.21,0,0,2.08,3,3.86,3.87l9.21,9.51c4.29,4.92,8.17,10.19,11.59,15.75,4.66,7.91,8.73,16.15,12.19,24.66-.13,1.58-.13,3.17,0,4.75,1.78,6.54,3.27,12.78,4.46,19.32v58.25c-1.49,12.49,2.4,25.03,10.7,34.48,2.08,2.38,3.56,5.35,6.83,6.54l4.46,5.05c9.21,8.92,17.54,18.13,26.45,27s11.89,12.19,17.54,18.43c5.19,4.97,8.99,11.23,11,18.13,4.47,13.77,1.18,28.87-8.61,39.53-3.87,4.46-8,8.32-12.19,12.48-8,8.62-16.64,16.94-24.67,25.56s-11.59,11.89-17.53,18.13c-9.26,8.92-14.34,21.33-14,34.18v49.33c-.31,16.77-4.16,33.28-11.3,48.45-6.49,13.88-15.45,26.47-26.45,37.15-8.1,7.98-17.43,14.6-27.64,19.61-4.14,2.5-8.52,4.59-13.07,6.25-7.51,2.33-15.15,4.22-22.89,5.64h-11.87c-.73-.42-1.64-.42-2.37,0h-9.22v1.19Z"/>
      </g>
      <g id="RJ4sI4.tif-2">
        <path class="st0" d="M205,229.82h27.64c5.83,2.13,10.34,6.85,12.18,12.78.74,6.91.74,13.89,0,20.8v24.67c.32,2.47.32,4.96,0,7.43-2.37,8.95-10.67,15.02-19.91,14.57h-26.8c-22.14,0-40.09,17.94-40.11,40.08v65.72l-3.57,17.83c-4.38,14.47-11.11,28.13-19.91,40.42h0l-15.45,17.54c-8,7.43-14.86,15.45-22.29,23.18v1.78c7.13,7.43,13.67,15.16,21.4,22l15.15,17.23c8.71,12.18,15.52,25.61,20.21,39.83l3.57,18.13v3.56c-.31.98-.31,2.02,0,3v57.06h0c-.44.95-.44,2.05,0,3,.47,14.41,8.64,27.46,21.4,34.18,6.68,4.09,14.48,5.96,22.29,5.35h19c4.15-.29,8.33-.29,12.48,0,5.53,2.26,9.92,6.65,12.19,12.18v1.49h0v44.28c.37,8.02-3.91,15.54-11,19.32-3.16,1.49-6.6,2.3-10.1,2.38h-26.15c-13.59.02-27.08-2.4-39.82-7.13-12.55-4.37-24.37-10.6-35.07-18.48,0,0-3.27-3.86-3.27-4.76l-9.51-9.51c-4.29-4.89-8.26-10.05-11.89-15.45-4.65-7.92-8.73-16.16-12.19-24.67.14-1.58.14-3.17,0-4.75-1.78-6.54-3.27-12.78-4.45-19.32v-58.25c1.49-12.49-2.4-25.03-10.7-34.48-2.39-3.03-5.44-5.47-8.92-7.13l-4.46-4.76c-9.21-8.91-17.53-18.13-26.45-27s-11.89-12.23-17.49-18.47c-5.2-4.97-8.99-11.22-11-18.13-4.47-13.77-1.17-28.87,8.62-39.53,3.86-4.45,8-8.32,11.89-12.48,8.32-8.62,16.94-16.94,25-25.56s11.49-11.89,17.49-18.13c9.26-8.92,14.34-21.33,14-34.18v-49.33c-.14-17.1,3.41-34.03,10.41-49.64,6.39-13.94,15.36-26.55,26.45-37.15,8.1-7.98,17.43-14.6,27.64-19.61,4.15-2.5,8.52-4.59,13.07-6.24,7.51-2.34,15.15-4.22,22.89-5.65h25.54Z"/>
      </g>
    </g>
  </g>
</svg>